<svg width="17" height="16" viewBox="0 0 17 16" fill="none" xmlns="http://www.w3.org/2000/svg">
<path d="M16 5.00006V8.00006M7.1875 3.12506H4.6C3.33988 3.12506 2.70982 3.12506 2.22852 3.37029C1.80516 3.58601 1.46095 3.93021 1.24523 4.35358C0.999999 4.83488 0.999999 5.46494 1 6.72506L1 7.62506C1 8.32397 1 8.67343 1.11418 8.94908C1.26642 9.31662 1.55843 9.60863 1.92597 9.76087C2.20163 9.87506 2.55109 9.87506 3.25 9.87506V13.0626C3.25 13.2367 3.25 13.3237 3.25722 13.3971C3.32737 14.1092 3.89081 14.6727 4.60298 14.7428C4.67631 14.7501 4.76338 14.7501 4.9375 14.7501C5.11163 14.7501 5.19869 14.7501 5.27203 14.7428C5.98419 14.6727 6.54764 14.1092 6.61778 13.3971C6.625 13.3237 6.625 13.2367 6.625 13.0626V9.87506H7.1875C8.51232 9.87506 10.1329 10.5852 11.3832 11.2668C12.1126 11.6644 12.4773 11.8632 12.7162 11.834C12.9377 11.8068 13.1052 11.7074 13.235 11.5259C13.375 11.3302 13.375 10.9386 13.375 10.1553V2.84477C13.375 2.06155 13.375 1.66994 13.235 1.47422C13.1052 1.29273 12.9377 1.19328 12.7162 1.16615C12.4773 1.1369 12.1126 1.33571 11.3832 1.73332C10.1329 2.41489 8.51232 3.12506 7.1875 3.12506Z" stroke="black" stroke-linecap="round" stroke-linejoin="round"/>
</svg>
