<svg width="220" height="29" viewBox="0 0 220 29" fill="none" xmlns="http://www.w3.org/2000/svg">
<path d="M0 14.1199V0.256836H2.78357L13.5563 11.1578V0.256836H16.1519V14.1199H13.3756L2.61005 3.21137V14.1199H0Z" fill="black"/>
<path d="M20.8086 14.1199V0.256836H35.6302V1.88822H23.5199V6.12832H34.8638V7.75971H23.5199V12.481H36.1074V14.1199H20.8086Z" fill="black"/>
<path d="M43.5036 14.1199L38.0449 0.256836H40.8213L43.9446 9.33847C44.2772 10.2782 44.5664 11.2179 44.8122 12.1802L45.7377 9.61663L49.6347 0.256836H52.9316L55.8236 7.27104C56.4999 8.85304 57.0347 10.4964 57.4214 12.1802C57.6889 11.2781 58.0215 10.2707 58.4336 9.17308L61.6872 0.256836H64.4201L58.7807 14.1199H56.1779L51.8398 3.59479L51.1964 1.9634C51.0012 2.57235 50.7987 3.11364 50.5963 3.59479L46.2727 14.1199H43.5036Z" fill="black"/>
<path d="M66.7266 14.1199V0.256836H69.4089V12.481H79.531V14.1199H66.7266Z" fill="black"/>
<path d="M83.334 14.1199V0.256836H86.038V14.1199H83.334Z" fill="black"/>
<path d="M90.9746 14.1199V0.256836H104.835V1.88822H93.6859V6.18095H103.309V7.81985H93.6859V14.1199H90.9746Z" fill="black"/>
<path d="M108.342 14.1199V0.256836H123.163V1.88822H111.053V6.12832H122.397V7.75971H111.053V12.481H123.633V14.1199H108.342Z" fill="black"/>
<path d="M127.82 14.1203V12.1807H130.712V14.1203H127.82Z" fill="black"/>
<path d="M135.273 14.1199V0.256836H139.351L144.217 10.0677L145.186 12.1201C145.432 11.6089 145.793 10.8721 146.285 9.90231L151.201 0.256836H154.852V14.1199H152.242V2.51973L146.263 14.1199H143.827L137.883 2.32426V14.1199H135.273Z" fill="black"/>
<path d="M158.454 7.36876C158.413 6.28112 158.653 5.20198 159.147 4.24257C159.641 3.28317 160.373 2.47824 161.266 1.91076C163.372 0.576526 165.808 -0.0848853 168.272 0.00872414C169.958 -0.0104838 171.634 0.277021 173.225 0.858248C174.593 1.34169 175.814 2.1954 176.76 3.33164C177.631 4.4132 178.095 5.78574 178.069 7.19585C178.076 8.18473 177.85 9.16036 177.408 10.0363C176.967 10.9123 176.325 11.6616 175.538 12.2178C173.687 13.6412 171.26 14.3529 168.258 14.3529C165.255 14.3529 162.821 13.6212 160.955 12.1577C160.197 11.6296 159.573 10.9179 159.137 10.0837C158.701 9.2496 158.467 8.31792 158.454 7.36876ZM161.244 7.36876C161.219 8.15934 161.394 8.94295 161.752 9.64099C162.11 10.339 162.638 10.9269 163.283 11.3457C164.76 12.3326 166.488 12.8355 168.243 12.7892C170.012 12.8548 171.758 12.3564 173.246 11.3608C173.904 10.9019 174.436 10.2736 174.791 9.53703C175.146 8.8005 175.311 7.98093 175.271 7.15826C175.287 6.00063 174.925 4.87149 174.244 3.95563C173.6 3.16939 172.759 2.58392 171.815 2.2641C170.689 1.82515 169.496 1.60597 168.294 1.61756C166.507 1.54163 164.74 2.03757 163.233 3.03844C162.569 3.52584 162.037 4.18177 161.686 4.94374C161.336 5.70571 161.179 6.54832 161.23 7.39131L161.244 7.36876Z" fill="black"/>
<path d="M181.475 14.1201V0.257029H188.553C189.888 0.226424 191.223 0.311924 192.544 0.512638C193.645 0.695867 194.7 1.10748 195.645 1.72302C196.496 2.28828 197.198 3.06298 197.692 3.97839C198.198 4.95086 198.448 6.04557 198.415 7.15095C198.454 8.5919 198.012 10.0025 197.164 11.143C196.344 12.2295 195.231 13.0381 193.968 13.466C192.31 13.9772 190.585 14.2107 188.856 14.1576L181.475 14.1201ZM184.186 12.4811H188.524C189.875 12.5362 191.226 12.3739 192.529 12C193.365 11.7454 194.1 11.2183 194.626 10.4964C195.29 9.50885 195.633 8.32568 195.602 7.12088C195.677 5.90762 195.307 4.70994 194.568 3.76789C193.868 2.95559 192.94 2.39278 191.915 2.15906C190.774 1.93516 189.612 1.84188 188.452 1.8809H184.157L184.186 12.4811Z" fill="black"/>
<path d="M199.932 14.1199L207.841 0.256836H210.733L219.127 14.1199H216.033L213.647 9.91735H205.022L202.795 14.1199H199.932ZM205.81 8.42128H212.801L210.668 4.58715C210.136 3.65553 209.653 2.69431 209.222 1.70779C208.947 2.63372 208.571 3.52406 208.102 4.36161L205.81 8.42128Z" fill="black"/>
<path d="M35.6738 22.5702H37.1198C37.7032 22.5419 38.2875 22.6001 38.855 22.7431C39.1792 22.8462 39.4662 23.0478 39.6793 23.322C39.8896 23.5945 40.0021 23.9348 39.9974 24.2843C40.0079 24.6445 39.8834 24.9949 39.6504 25.2616C39.3596 25.5554 38.9971 25.7608 38.602 25.8555L40.3444 28.4793H38.8478L37.1994 25.9983H37.0692V28.4793H35.6738V22.5702ZM37.0692 24.8782H37.5103C37.8228 24.9038 38.1368 24.855 38.4285 24.7353C38.5097 24.6917 38.5769 24.6243 38.6218 24.5415C38.6668 24.4587 38.6875 24.3641 38.6815 24.2692C38.6816 24.1447 38.6379 24.0243 38.5586 23.9309C38.4655 23.832 38.3479 23.7618 38.2188 23.7279C37.9668 23.6745 37.7093 23.6543 37.4524 23.6678H37.0692V24.8782Z" fill="black"/>
<path d="M45.5996 22.5708H49.6123V23.6684H46.995V24.736H49.6195V25.8185H46.995V27.3747H49.6195V28.4799H45.5996V22.5708Z" fill="black"/>
<path d="M58.8518 23.3672L57.8179 24.119C57.6851 23.9423 57.5179 23.7967 57.3273 23.6917C57.1367 23.5868 56.9269 23.5249 56.7117 23.51C56.5517 23.502 56.3931 23.5439 56.2562 23.6303C56.2078 23.6548 56.1664 23.6919 56.136 23.7381C56.1056 23.7842 56.0872 23.8377 56.0827 23.8934C56.0861 24.0017 56.1302 24.1043 56.2056 24.1791C56.531 24.4537 56.874 24.7049 57.2322 24.9309C57.7673 25.2918 58.0926 25.5173 58.2011 25.6075C58.4404 25.7879 58.6462 26.0121 58.8084 26.2691C58.9238 26.4797 58.9837 26.7183 58.9819 26.9607C58.9825 27.1992 58.9259 27.434 58.8173 27.644C58.7088 27.854 58.5517 28.0326 58.3601 28.1636C57.8804 28.4981 57.3104 28.6641 56.7334 28.6372C56.2608 28.6487 55.7924 28.543 55.3669 28.329C54.9555 28.103 54.6106 27.7652 54.3691 27.3517L55.5404 26.7502C55.6688 26.9705 55.8475 27.1544 56.0607 27.2855C56.2738 27.4167 56.5148 27.491 56.7623 27.502C56.9767 27.5077 57.1879 27.4475 57.3696 27.3291C57.4382 27.2906 57.4962 27.2345 57.538 27.166C57.5798 27.0976 57.6039 27.0191 57.6082 26.9382C57.5993 26.7862 57.5346 26.6436 57.4275 26.5397C57.1722 26.3328 56.8987 26.1515 56.6105 25.9985C56.0459 25.6643 55.5257 25.2549 55.0632 24.7806C54.9341 24.6507 54.8359 24.4914 54.7763 24.3153C54.7167 24.1391 54.6973 23.9509 54.7198 23.7656C54.7422 23.5804 54.8059 23.4031 54.9056 23.2478C55.0054 23.0925 55.1386 22.9635 55.2946 22.871C55.7187 22.5672 56.226 22.4142 56.7406 22.435C57.0969 22.4333 57.4502 22.5022 57.7817 22.638C58.1773 22.8129 58.5396 23.0599 58.8518 23.3672Z" fill="black"/>
<path d="M66.6453 22.5708H68.0913L70.8532 28.4799H69.4072L68.8288 27.262H65.8645L65.2644 28.4799H63.8184L66.6453 22.5708ZM67.3683 24.1345L66.385 26.1644H68.3516L67.3683 24.1345Z" fill="black"/>
<path d="M76.0527 22.5708H77.4554V27.4123H79.487V28.4799H76.0527V22.5708Z" fill="black"/>
<path d="M84.6484 22.5708H88.6539V23.6684H86.0366V24.736H88.6539V25.8185H86.0366V27.3747H88.6539V28.4799H84.6484V22.5708Z" fill="black"/>
<path d="M104.836 23.3677L103.802 24.1195C103.667 23.9432 103.498 23.7981 103.307 23.6932C103.115 23.5884 102.904 23.5262 102.688 23.5105C102.531 23.5026 102.374 23.5445 102.24 23.6308C102.192 23.6553 102.15 23.6924 102.12 23.7385C102.089 23.7847 102.071 23.8382 102.066 23.8939C102.066 23.9479 102.077 24.0012 102.099 24.0504C102.12 24.0996 102.151 24.1437 102.189 24.1796C102.515 24.4542 102.858 24.7054 103.216 24.9314C103.744 25.2923 104.069 25.5178 104.185 25.608C104.422 25.7883 104.626 26.0126 104.785 26.2696C104.906 26.4781 104.969 26.7177 104.966 26.9612C104.966 27.2005 104.909 27.436 104.799 27.6461C104.689 27.8563 104.53 28.0344 104.337 28.1641C103.858 28.5005 103.287 28.6667 102.71 28.6377C102.238 28.6475 101.77 28.5419 101.343 28.3295C100.932 28.1035 100.587 27.7657 100.346 27.3522L101.524 26.7883C101.651 27.008 101.829 27.1916 102.041 27.3227C102.253 27.4539 102.492 27.5286 102.739 27.5401C102.953 27.5471 103.165 27.4869 103.346 27.3672C103.417 27.3303 103.476 27.2747 103.52 27.2061C103.563 27.1374 103.588 27.0582 103.592 26.9763C103.58 26.8234 103.513 26.6809 103.404 26.5778C103.155 26.3443 102.884 26.1377 102.594 25.9613C102.028 25.6267 101.505 25.2173 101.04 24.7434C100.829 24.5131 100.706 24.2114 100.693 23.8939C100.698 23.6814 100.753 23.4735 100.854 23.2886C100.955 23.1037 101.098 22.9475 101.271 22.8339C101.695 22.5301 102.203 22.3771 102.717 22.3979C103.076 22.3961 103.432 22.465 103.766 22.6008C104.162 22.7897 104.525 23.0492 104.836 23.3677Z" fill="black"/>
<path d="M109.672 22.5708H113.735V23.6759H112.397V28.4799H110.951V23.6759H109.643L109.672 22.5708Z" fill="black"/>
<path d="M122.245 22.4206C123.213 22.395 124.16 22.7162 124.927 23.3303C125.27 23.5764 125.551 23.9055 125.744 24.2891C125.938 24.6728 126.039 25.0997 126.039 25.533C126.039 25.9664 125.938 26.3932 125.744 26.7769C125.551 27.1606 125.27 27.4896 124.927 27.7358C124.135 28.3252 123.186 28.6422 122.212 28.6422C121.239 28.6422 120.289 28.3252 119.497 27.7358C119.163 27.4853 118.89 27.157 118.699 26.7772C118.508 26.3974 118.405 25.9765 118.398 25.5481C118.398 24.9821 118.579 24.4321 118.912 23.9843C119.277 23.488 119.761 23.0993 120.314 22.8566C120.92 22.5674 121.579 22.4186 122.245 22.4206ZM122.245 23.5182C121.628 23.4997 121.023 23.7013 120.531 24.0896C120.308 24.2535 120.125 24.4708 120 24.7234C119.874 24.9759 119.808 25.2561 119.808 25.5405C119.806 25.8579 119.885 26.17 120.039 26.444C120.193 26.718 120.416 26.9435 120.683 27.0967C121.152 27.3962 121.694 27.5501 122.245 27.5403C122.856 27.5552 123.453 27.3507 123.937 26.9614C124.155 26.7985 124.332 26.584 124.455 26.3356C124.577 26.0872 124.641 25.8121 124.641 25.533C124.641 25.2539 124.577 24.9788 124.455 24.7304C124.332 24.482 124.155 24.2675 123.937 24.1046C123.451 23.7087 122.847 23.5014 122.23 23.5182H122.245Z" fill="black"/>
<path d="M131.586 22.5704H133.032C133.613 22.5415 134.195 22.5998 134.76 22.7433C135.087 22.8443 135.377 23.0462 135.591 23.3222C135.799 23.5958 135.909 23.936 135.902 24.2845C135.913 24.6447 135.788 24.9951 135.555 25.2618C135.266 25.5539 134.906 25.7591 134.514 25.8558L136.249 28.4795H134.724L133.075 25.9986H132.945V28.4795H131.586V22.5704ZM132.981 24.8784H133.422C133.735 24.9025 134.049 24.8537 134.341 24.7356C134.421 24.6916 134.487 24.6239 134.531 24.541C134.575 24.4581 134.594 24.3637 134.586 24.2695C134.59 24.1442 134.546 24.0226 134.463 23.9312C134.372 23.8335 134.257 23.7633 134.131 23.7282C133.879 23.6752 133.621 23.655 133.365 23.6681H132.981V24.8784Z" fill="black"/>
<path d="M141.479 22.5708H145.484V23.6684H142.867V24.736H145.484V25.8185H142.867V27.3747H145.484V28.4799H141.479V22.5708Z" fill="black"/>
<path d="M157.818 22.5708H159.156L162.308 26.4576V22.5708H163.704V28.4799H162.366L159.221 24.6006V28.4799H157.818V22.5708ZM167.94 25.8336C167.938 26.0316 167.889 26.226 167.798 26.4001C167.708 26.5742 167.578 26.7229 167.42 26.8335C167.06 27.1027 166.627 27.2475 166.184 27.2475C165.74 27.2475 165.307 27.1027 164.947 26.8335C164.789 26.7244 164.659 26.5764 164.57 26.4026C164.48 26.2288 164.433 26.0346 164.433 25.8373C164.433 25.6401 164.48 25.4459 164.57 25.2721C164.659 25.0983 164.789 24.9502 164.947 24.8412C165.304 24.5649 165.739 24.4195 166.184 24.4277C166.629 24.4172 167.064 24.5628 167.42 24.8412C167.58 24.9493 167.712 25.0961 167.805 25.2689C167.898 25.4418 167.95 25.6355 167.955 25.8336H167.94ZM164.434 27.7807H167.94V28.4799H164.434V27.7807ZM167.015 25.8411C167.015 25.7461 166.993 25.6525 166.95 25.5686C166.907 25.4847 166.845 25.413 166.769 25.3599C166.597 25.2229 166.386 25.1513 166.169 25.157C165.952 25.1501 165.74 25.2218 165.569 25.3599C165.491 25.4116 165.427 25.4828 165.383 25.5669C165.339 25.651 165.316 25.7453 165.316 25.8411C165.316 25.9369 165.339 26.0312 165.383 26.1153C165.427 26.1994 165.491 26.2706 165.569 26.3222C165.74 26.4615 165.952 26.5334 166.169 26.5252C166.386 26.5309 166.597 26.4592 166.769 26.3222C166.845 26.2687 166.906 26.197 166.949 26.1132C166.992 26.0293 167.015 25.936 167.015 25.8411Z" fill="black"/>
<path d="M174.099 22.5708H176.196V28.4799H174.807V23.6233H173.289L174.099 22.5708Z" fill="black"/>
</svg>
