<svg width="51" height="16" viewBox="0 0 51 16" fill="none" xmlns="http://www.w3.org/2000/svg">
<g clip-path="url(#clip0_147_4414)">
<path d="M22.3115 15.7692H18.3066L20.8115 0.280762H24.8161L22.3115 15.7692Z" fill="#00579F"/>
<path d="M36.8298 0.659404C36.0399 0.346017 34.787 0 33.2378 0C29.2829 0 26.4979 2.10895 26.4808 5.12412C26.4479 7.3487 28.4748 8.58429 29.9907 9.32604C31.5401 10.084 32.0668 10.5787 32.0668 11.2543C32.051 12.2919 30.8148 12.7702 29.6617 12.7702C28.0628 12.7702 27.2061 12.5236 25.9042 11.9464L25.3768 11.6989L24.8164 15.1757C25.7557 15.6036 27.4862 15.9834 29.2829 16C33.485 16 36.2207 13.9237 36.2532 10.7105C36.2691 8.94739 35.1989 7.59639 32.8915 6.49242C31.4908 5.78374 30.633 5.30589 30.633 4.58078C30.6494 3.9216 31.3585 3.24643 32.9397 3.24643C34.2417 3.21336 35.1982 3.52631 35.9229 3.83948L36.2851 4.00394L36.8298 0.659404Z" fill="#00579F"/>
<path d="M42.1531 10.2822C42.4829 9.3924 43.752 5.94865 43.752 5.94865C43.7354 5.98172 44.0812 5.04244 44.2789 4.46582L44.5588 5.80039C44.5588 5.80039 45.3172 9.50781 45.4819 10.2822C44.856 10.2822 42.9442 10.2822 42.1531 10.2822ZM47.0966 0.280762H43.9988C43.0436 0.280762 42.3178 0.560641 41.9057 1.56584L35.957 15.769H40.1592C40.1592 15.769 40.851 13.8573 40.9997 13.4456C41.4607 13.4456 45.5485 13.4456 46.1415 13.4456C46.2565 13.9894 46.6194 15.769 46.6194 15.769H50.3274L47.0966 0.280762Z" fill="#00579F"/>
<path d="M14.9618 0.280762L11.0397 10.8424L10.6111 8.70036C9.88605 6.22875 7.61197 3.5434 5.07422 2.20816L8.66666 15.7528H12.9017L19.1965 0.280762H14.9618Z" fill="#00579F"/>
<path d="M7.39795 0.280762H0.95459L0.888672 0.59371C5.9149 1.87901 9.24367 4.97718 10.6113 8.70102L9.2106 1.58271C8.98 0.593491 8.27132 0.313392 7.39795 0.280762Z" fill="#FAA61A"/>
</g>
<defs>
<clipPath id="clip0_147_4414">
<rect width="49.4379" height="16" fill="white" transform="translate(0.888672)"/>
</clipPath>
</defs>
</svg>
