<svg xmlns="http://www.w3.org/2000/svg" xmlns:xlink="http://www.w3.org/1999/xlink"><defs><symbol fill="none" viewBox="0 0 22 21" id="add-foto-profile">
  <path d="M21 10.5v3.1c0 2.24 0 3.36-.436 4.216a4 4 0 0 1-1.748 1.748C17.96 20 16.84 20 14.6 20H7.4c-2.24 0-3.36 0-4.216-.436a4 4 0 0 1-1.748-1.748C1 16.96 1 15.84 1 13.6V8.4c0-2.24 0-3.36.436-4.216a4 4 0 0 1 1.748-1.748C4.04 2 5.16 2 7.4 2h4.1M18 7V1m-3 3h6m-6 7a4 4 0 1 1-8 0 4 4 0 0 1 8 0Z" stroke="#000" stroke-linecap="round" stroke-linejoin="round" />
</symbol><symbol fill="none" viewBox="0 0 12 12" id="arrow-back">
  <path d="M11 6H1m0 0 5-5M1 6l5 5" stroke="#000" stroke-linecap="round" stroke-linejoin="round" />
</symbol><symbol fill="none" viewBox="0 0 9 16" id="arrow-next-black">
  <path d="m1 1 7 7-7 7" stroke="#000" stroke-linecap="round" stroke-linejoin="round" />
</symbol><symbol fill="none" viewBox="0 0 20 21" id="bell">
  <path d="M7.548 19.05a3.646 3.646 0 0 0 4.908 0M1 4.629c-.013-1.379.713-2.666 1.885-3.344M19 4.629c.013-1.379-.713-2.666-1.885-3.344M15.566 6.7a5.771 5.771 0 0 0-1.63-4.03A5.499 5.499 0 0 0 10.003 1c-1.476 0-2.891.6-3.935 1.67a5.771 5.771 0 0 0-1.63 4.03c0 2.936-.723 4.946-1.53 6.275-.681 1.122-1.022 1.682-1.01 1.839.014.173.05.239.186.342.123.094.678.094 1.788.094h12.262c1.11 0 1.664 0 1.787-.094.137-.103.172-.17.186-.342.013-.157-.328-.717-1.01-1.839-.807-1.33-1.53-3.34-1.53-6.275Z" stroke="#000" stroke-linecap="round" stroke-linejoin="round" />
</symbol><symbol fill="none" viewBox="0 0 14 14" id="bell-black">
  <path d="M5.365 12.4c.436.373 1.009.6 1.636.6s1.2-.227 1.636-.6M1 3.292A2.392 2.392 0 0 1 2.257 1.18M13 3.292a2.392 2.392 0 0 0-1.257-2.112M10.711 4.6c0-.955-.39-1.87-1.087-2.546A3.768 3.768 0 0 0 7.001 1c-.984 0-1.927.38-2.623 1.054A3.547 3.547 0 0 0 3.292 4.6c0 1.854-.482 3.124-1.02 3.963-.455.709-.682 1.063-.674 1.161.01.11.033.152.124.217.082.059.452.059 1.192.059h8.175c.74 0 1.11 0 1.191-.059.091-.065.115-.107.124-.217.008-.098-.219-.452-.673-1.16-.538-.84-1.02-2.11-1.02-3.964Z" stroke="#000" stroke-linecap="round" stroke-linejoin="round" />
</symbol><symbol fill="none" viewBox="0 0 14 15" id="box">
  <path d="M2.68 1.416 1.64 2.768c-.206.268-.309.402-.307.514a.322.322 0 0 0 .128.249c.09.069.262.069.606.069h9.866c.344 0 .515 0 .606-.07a.322.322 0 0 0 .128-.248c.002-.112-.101-.246-.307-.514l-1.04-1.352m-8.64 0c.117-.153.176-.229.25-.284a.674.674 0 0 1 .22-.107C3.24 1 3.338 1 3.533 1h6.934c.195 0 .293 0 .383.025.08.022.154.058.22.107.074.055.133.131.25.284m-8.64 0-1.253 1.63c-.159.205-.238.308-.294.421-.05.1-.086.207-.108.317C1 3.907 1 4.036 1 4.294v7.626c0 .728 0 1.092.145 1.37.128.245.332.444.583.568.285.142.659.142 1.405.142h7.734c.746 0 1.12 0 1.405-.142.25-.124.455-.323.583-.568.145-.278.145-.642.145-1.37V4.293c0-.257 0-.386-.025-.51a1.273 1.273 0 0 0-.108-.316c-.056-.113-.135-.216-.294-.422L11.32 1.416M9.667 6.2c0 .69-.281 1.35-.781 1.838S7.707 8.8 7 8.8a2.702 2.702 0 0 1-1.886-.762 2.567 2.567 0 0 1-.78-1.838" stroke="#000" stroke-linecap="round" stroke-linejoin="round" />
</symbol><symbol fill="none" viewBox="0 0 22 16" id="card">
  <path d="M21 6H1m9 4H5M1 4.2v7.6c0 1.12 0 1.68.218 2.108a2 2 0 0 0 .874.874C2.52 15 3.08 15 4.2 15h13.6c1.12 0 1.68 0 2.108-.218a2 2 0 0 0 .874-.874C21 13.48 21 12.92 21 11.8V4.2c0-1.12 0-1.68-.218-2.108a2 2 0 0 0-.874-.874C19.48 1 18.92 1 17.8 1H4.2c-1.12 0-1.68 0-2.108.218a2 2 0 0 0-.874.874C1 2.52 1 3.08 1 4.2Z" stroke="#000" stroke-linecap="round" stroke-linejoin="round" />
</symbol><symbol fill="none" viewBox="0 0 42 42" id="check">
  <path d="m15 21 4 4 9-9M15.404 38.202a2.482 2.482 0 0 1 1.84.493l2.406 1.847a2.21 2.21 0 0 0 2.695 0l2.498-1.918a2.21 2.21 0 0 1 1.638-.438l3.124.411a2.215 2.215 0 0 0 2.335-1.349l1.202-2.906a2.206 2.206 0 0 1 1.2-1.2l2.907-1.202a2.214 2.214 0 0 0 1.348-2.336l-.395-3.01a2.482 2.482 0 0 1 .493-1.84l1.847-2.407a2.21 2.21 0 0 0 0-2.696l-1.918-2.498a2.21 2.21 0 0 1-.438-1.637l.411-3.125a2.215 2.215 0 0 0-1.348-2.335l-2.907-1.202a2.206 2.206 0 0 1-1.2-1.2L31.94 4.747a2.214 2.214 0 0 0-2.335-1.349l-3.124.411a2.2 2.2 0 0 1-1.636-.433l-2.497-1.918a2.21 2.21 0 0 0-2.696 0l-2.497 1.918a2.23 2.23 0 0 1-1.638.438l-3.124-.411a2.215 2.215 0 0 0-2.335 1.349l-1.2 2.906a2.235 2.235 0 0 1-1.2 1.2l-2.907 1.2a2.215 2.215 0 0 0-1.348 2.336l.41 3.124a2.222 2.222 0 0 1-.437 1.635l-1.918 2.498a2.21 2.21 0 0 0 0 2.696l1.918 2.497a2.21 2.21 0 0 1 .438 1.638l-.411 3.124a2.215 2.215 0 0 0 1.348 2.336l2.907 1.202a2.21 2.21 0 0 1 1.2 1.2l1.202 2.907a2.214 2.214 0 0 0 2.335 1.349l3.009-.398Z" stroke="#000" stroke-linecap="round" stroke-linejoin="round" />
</symbol><symbol fill="none" viewBox="0 0 30 30" id="close-round">
  <circle cx="15" cy="15" r="14.5" stroke="#000" />
  <path d="M21 9 9 21M9 9l12 12" stroke="#000" stroke-linecap="round" stroke-linejoin="round" />
</symbol><symbol fill="none" viewBox="0 0 16 15" id="coins">
  <path d="M8 10.579C8 12.469 9.567 14 11.5 14s3.5-1.532 3.5-3.421c0-1.89-1.567-3.421-3.5-3.421S8 8.69 8 10.578Zm0 0c0-.77.26-1.481.7-2.053V2.368m-.7 8.21c0 .566.14 1.098.388 1.568-.59.487-1.952.828-3.538.828-2.126 0-3.85-.613-3.85-1.369V2.368m7.7 0c0 .756-1.724 1.369-3.85 1.369C2.724 3.737 1 3.124 1 2.368m7.7 0C8.7 1.613 6.976 1 4.85 1 2.724 1 1 1.613 1 2.368m0 6.158c0 .756 1.724 1.369 3.85 1.369 1.532 0 2.856-.318 3.475-.779M8.7 5.447c0 .756-1.724 1.369-3.85 1.369C2.724 6.816 1 6.203 1 5.447" stroke="#000" stroke-linecap="round" stroke-linejoin="round" />
</symbol><symbol fill="none" viewBox="0 0 22 20" id="coins-2">
  <path d="M12 3c0 1.105-2.462 2-5.5 2S1 4.105 1 3m11 0c0-1.105-2.462-2-5.5-2S1 1.895 1 3m11 0v4.457c-1.222.367-2 .922-2 1.543M1 3v12c0 1.105 2.462 2 5.5 2 1.33 0 2.55-.172 3.5-.457V9M1 7c0 1.105 2.462 2 5.5 2 1.33 0 2.55-.172 3.5-.457M1 11c0 1.105 2.462 2 5.5 2 1.33 0 2.55-.172 3.5-.457M21 9c0 1.105-2.462 2-5.5 2S10 10.105 10 9m11 0c0-1.105-2.462-2-5.5-2S10 7.895 10 9m11 0v8c0 1.105-2.462 2-5.5 2s-5.5-.895-5.5-2V9m11 4c0 1.105-2.462 2-5.5 2s-5.5-.895-5.5-2" stroke="#000" stroke-linecap="round" stroke-linejoin="round" />
</symbol><symbol fill="none" viewBox="0 0 14 14" id="discount">
  <path d="M5.2 5.2h.006M8.8 8.8h.006M9.4 4.6 4.6 9.4m-.4-7.309a2.3 2.3 0 0 0 1.31-.541 2.3 2.3 0 0 1 2.982 0 2.3 2.3 0 0 0 1.309.542 2.3 2.3 0 0 1 2.109 2.11 2.3 2.3 0 0 0 .542 1.308 2.3 2.3 0 0 1 0 2.982 2.3 2.3 0 0 0-.542 1.309A2.3 2.3 0 0 1 9.8 11.91a2.3 2.3 0 0 0-1.308.542 2.3 2.3 0 0 1-2.982 0 2.3 2.3 0 0 0-1.309-.542A2.3 2.3 0 0 1 2.092 9.8a2.3 2.3 0 0 0-.542-1.308 2.3 2.3 0 0 1 0-2.982 2.3 2.3 0 0 0 .541-1.31 2.3 2.3 0 0 1 2.11-2.109ZM5.5 5.2a.3.3 0 1 1-.6 0 .3.3 0 0 1 .6 0Zm3.6 3.6a.3.3 0 1 1-.6 0 .3.3 0 0 1 .6 0Z" stroke="#000" stroke-linecap="round" stroke-linejoin="round" />
</symbol><symbol fill="none" viewBox="0 0 14 17" id="doc">
  <path d="M8.5 7.75H4m1.5 3H4m6-6H4m9-.15v7.8c0 1.26 0 1.89-.245 2.371a2.25 2.25 0 0 1-.984.984C11.291 16 10.661 16 9.4 16H4.6c-1.26 0-1.89 0-2.371-.245a2.25 2.25 0 0 1-.984-.984C1 14.291 1 13.662 1 12.4V4.6c0-1.26 0-1.89.245-2.371a2.25 2.25 0 0 1 .984-.984C2.709 1 3.339 1 4.6 1h4.8c1.26 0 1.89 0 2.371.245.424.216.768.56.984.984C13 2.709 13 3.339 13 4.6Z" stroke="#000" stroke-linecap="round" stroke-linejoin="round" />
</symbol><symbol fill="none" viewBox="0 0 32 31" id="equals">
  <path d="M10 14.378h12M10 18.27h12m9-2.432c0 8.06-6.716 14.594-15 14.594-8.284 0-15-6.534-15-14.594C1 7.778 7.716 1.243 16 1.243c8.284 0 15 6.534 15 14.595Z" stroke="#000" stroke-linecap="round" stroke-linejoin="round" />
</symbol><symbol fill="none" viewBox="0 0 20 20" id="expand">
  <path d="m14 6 5-5m0 0h-5m5 0v5M6 6 1 1m0 0v5m0-5h5m0 13-5 5m0 0h5m-5 0v-5m13 0 5 5m0 0v-5m0 5h-5" stroke="#000" stroke-linecap="round" stroke-linejoin="round" />
</symbol><symbol fill="none" viewBox="0 0 38 38" id="expand-thin">
  <path d="M25 13 37 1m0 0H25m12 0v12m-24 0L1 1m0 0v12M1 1h12m0 24L1 37m0 0h12M1 37V25m24 0 12 12m0 0V25m0 12H25" stroke="#000" stroke-linecap="round" stroke-linejoin="round" />
</symbol><symbol fill="none" viewBox="0 0 16 12" id="eye">
  <path d="M1.188 6.51c-.097-.155-.146-.232-.173-.35a.841.841 0 0 1 0-.32c.027-.118.076-.195.173-.35C1.988 4.219 4.37 1 8 1c3.63 0 6.012 3.218 6.812 4.49.097.155.146.232.173.35.02.09.02.23 0 .32-.027.118-.076.195-.173.35C14.012 7.781 11.63 11 8 11c-3.63 0-6.012-3.218-6.812-4.49Z" stroke="#000" stroke-linecap="round" stroke-linejoin="round" />
  <path d="M8 8.143c1.178 0 2.133-.96 2.133-2.143A2.138 2.138 0 0 0 8 3.857c-1.178 0-2.133.96-2.133 2.143 0 1.183.955 2.143 2.133 2.143Z" stroke="#000" stroke-linecap="round" stroke-linejoin="round" />
</symbol><symbol fill="none" viewBox="0 0 22 20" id="eye-off">
  <path d="M9.743 3.092C10.149 3.032 10.569 3 11 3c5.105 0 8.455 4.505 9.58 6.287.137.215.205.323.243.49a1.16 1.16 0 0 1 0 .447c-.038.166-.107.274-.244.492-.3.474-.757 1.141-1.363 1.865M5.724 4.715c-2.162 1.467-3.63 3.504-4.303 4.57-.137.217-.205.325-.243.491a1.173 1.173 0 0 0 0 .447c.038.167.106.274.242.49C2.546 12.495 5.895 17 11 17c2.059 0 3.832-.732 5.289-1.723M2 1l18 18M8.88 7.879a3 3 0 1 0 4.243 4.243" stroke="#000" stroke-width="2" stroke-linecap="round" stroke-linejoin="round" />
</symbol><symbol fill="none" viewBox="0 0 16 9" id="form-arrow">
  <path d="M15 1 8 8 1 1" stroke="#000" stroke-linecap="round" stroke-linejoin="round" />
</symbol><symbol fill="none" viewBox="0 0 26 23" id="heart">
  <path clip-rule="evenodd" d="M12.992 3.515c-2.4-2.752-6.4-3.493-9.406-.972C.58 5.063.156 9.277 2.517 12.258c1.963 2.478 7.903 7.705 9.85 9.397.217.189.326.284.453.32a.607.607 0 0 0 .343 0c.127-.037.236-.131.454-.32 1.947-1.692 7.887-6.92 9.85-9.398 2.36-2.98 1.989-7.22-1.07-9.714-3.057-2.494-7.006-1.78-9.405.972Z" stroke="#000" stroke-linecap="round" stroke-linejoin="round" />
</symbol><symbol fill="none" viewBox="0 0 14 13" id="heart-black">
  <path clip-rule="evenodd" d="M6.996 2.317c-1.2-1.441-3.2-1.83-4.703-.509a3.745 3.745 0 0 0-.534 5.089c.98 1.298 3.95 4.036 4.924 4.922.11.1.164.149.227.168a.295.295 0 0 0 .172 0c.063-.02.118-.069.227-.168.973-.886 3.943-3.624 4.924-4.922 1.18-1.562.995-3.783-.534-5.089-1.529-1.306-3.504-.932-4.703.51Z" stroke="#000" stroke-linecap="round" stroke-linejoin="round" />
</symbol><symbol fill="none" viewBox="0 0 20 20" id="info">
  <path d="M10 13.6V9.5m0-3.1h.009M19 10a9 9 0 1 1-18 0 9 9 0 0 1 18 0Z" stroke="#000" stroke-linecap="round" stroke-linejoin="round" />
</symbol><symbol fill="none" viewBox="0 0 20 20" id="key">
  <path d="M13 7h.01M13 13a6 6 0 1 0-5.946-5.193c.058.434.087.651.068.789a.853.853 0 0 1-.117.346c-.068.121-.187.24-.426.479l-5.11 5.11c-.173.173-.26.26-.322.36a1 1 0 0 0-.12.29C1 15.296 1 15.418 1 15.663V17.4c0 .56 0 .84.109 1.054a1 1 0 0 0 .437.437C1.76 19 2.04 19 2.6 19h1.737c.245 0 .367 0 .482-.028a.998.998 0 0 0 .29-.12c.1-.061.187-.148.36-.32l5.11-5.111c.239-.239.358-.358.48-.426a.852.852 0 0 1 .345-.117c.138-.02.355.01.789.068.264.036.533.054.807.054Z" stroke="#000" stroke-linecap="round" stroke-linejoin="round" />
</symbol><symbol fill="none" viewBox="0 0 26 16" id="mastercard">
  <g clip-path="url(#mastercard_a)">
    <path d="M16.445 1.71h-7v12.58h7V1.71Z" fill="#FF5F00" />
    <path d="M9.889 8c0-2.556 1.2-4.822 3.044-6.289A7.95 7.95 0 0 0 8 0C3.578 0 0 3.578 0 8c0 4.422 3.578 8 8 8a7.95 7.95 0 0 0 4.933-1.711A7.988 7.988 0 0 1 9.89 8Z" fill="#EB001B" />
    <path d="M25.89 8c0 4.422-3.577 8-8 8a7.95 7.95 0 0 1-4.933-1.711A7.954 7.954 0 0 0 16.001 8c0-2.556-1.2-4.822-3.044-6.289A7.951 7.951 0 0 1 17.89 0c4.423 0 8 3.6 8 8Z" fill="#F79E1B" />
  </g>
  <defs>
    
  </defs>
</symbol><clipPath id="mastercard_a">
      <path fill="#fff" d="M0 0h25.889v16H0z" />
    </clipPath><symbol fill="none" viewBox="0 0 32 31" id="minus">
  <path d="M10 15.838h12m9 0c0 8.06-6.716 14.594-15 14.594-8.284 0-15-6.534-15-14.594C1 7.778 7.716 1.243 16 1.243c8.284 0 15 6.534 15 14.595Z" stroke="#000" stroke-linecap="round" stroke-linejoin="round" />
</symbol><symbol fill="none" viewBox="0 0 54 16" id="mir">
  <path fill-rule="evenodd" clip-rule="evenodd" d="M8.801 1.736c.42-.003 1.665-.115 2.193 1.666.356 1.2.922 3.166 1.7 5.897h.316c.833-2.88 1.406-4.845 1.718-5.897.533-1.8 1.866-1.666 2.4-1.666h4.114v12.8h-4.194V6.992h-.28l-2.339 7.544h-3.155l-2.338-7.55h-.281v7.55H4.46v-12.8H8.8Zm18.464 0v7.548h.334l2.844-6.207c.552-1.235 1.729-1.341 1.729-1.341h4.058v12.8h-4.28v-7.55h-.335l-2.788 6.208c-.552 1.23-1.784 1.342-1.784 1.342h-4.059v-12.8h4.282Zm23.764 6.082c-.597 1.693-2.473 2.905-4.55 2.905h-4.49v3.813h-4.07V7.818h13.11Z" fill="#0F754E" />
  <path fill-rule="evenodd" clip-rule="evenodd" d="M46.675 1.736h-8.972c.214 2.85 2.668 5.29 5.208 5.29h8.4c.484-2.37-1.185-5.29-4.636-5.29Z" fill="url(#mir_a)" />
  <defs>
    
  </defs>
</symbol><linearGradient id="mir_a" x1="51.393" y1="5.063" x2="37.703" y2="5.063" gradientUnits="userSpaceOnUse">
      <stop stop-color="#1F5CD7" />
      <stop offset="1" stop-color="#02AEFF" />
    </linearGradient><symbol fill="none" viewBox="0 0 22 21" id="more-photo">
  <path d="M21 10.5v3.1c0 2.24 0 3.36-.436 4.216a4 4 0 0 1-1.748 1.748C17.96 20 16.84 20 14.6 20H7.4c-2.24 0-3.36 0-4.216-.436a4 4 0 0 1-1.748-1.748C1 16.96 1 15.84 1 13.6V8.4c0-2.24 0-3.36.436-4.216a4 4 0 0 1 1.748-1.748C4.04 2 5.16 2 7.4 2h4.1M18 7V1m-3 3h6m-6 7a4 4 0 1 1-8 0 4 4 0 0 1 8 0Z" stroke="#000" stroke-linecap="round" stroke-linejoin="round" />
</symbol><symbol fill="none" viewBox="0 0 39 39" id="multistar">
  <path d="M14.323 35.412a2.296 2.296 0 0 1 1.702.456l2.226 1.708c.736.565 1.76.565 2.493 0l2.31-1.774a2.044 2.044 0 0 1 1.516-.405l2.89.38a2.05 2.05 0 0 0 2.16-1.247l1.112-2.689a2.04 2.04 0 0 1 1.11-1.11l2.688-1.112a2.048 2.048 0 0 0 1.248-2.16l-.366-2.785a2.296 2.296 0 0 1 .456-1.702l1.708-2.226a2.045 2.045 0 0 0 0-2.494l-1.774-2.31a2.044 2.044 0 0 1-.405-1.515l.38-2.89a2.05 2.05 0 0 0-1.247-2.16l-2.688-1.112a2.04 2.04 0 0 1-1.11-1.11L29.62 4.466a2.048 2.048 0 0 0-2.16-1.248l-2.89.38a2.034 2.034 0 0 1-1.513-.4l-2.31-1.774a2.045 2.045 0 0 0-2.494 0l-2.31 1.774a2.063 2.063 0 0 1-1.515.405l-2.89-.38a2.05 2.05 0 0 0-2.16 1.247l-1.11 2.69c-.21.501-.608.9-1.11 1.11L4.47 9.379a2.05 2.05 0 0 0-1.248 2.16l.38 2.89a2.055 2.055 0 0 1-.404 1.513l-1.774 2.31a2.045 2.045 0 0 0 0 2.494l1.774 2.31c.33.432.477.976.405 1.515l-.38 2.89a2.05 2.05 0 0 0 1.247 2.16l2.688 1.112a2.04 2.04 0 0 1 1.11 1.11l1.112 2.689a2.048 2.048 0 0 0 2.16 1.248l2.784-.368Z" stroke="#000" stroke-linecap="round" stroke-linejoin="round" />
</symbol><symbol fill="none" viewBox="0 0 20 20" id="pin">
  <path d="M3.7 12.058c-1.666.735-2.7 1.76-2.7 2.892C1 17.187 5.03 19 10 19s9-1.813 9-4.05c0-1.133-1.034-2.157-2.7-2.892M15.4 6.4c0 3.657-4.05 5.4-5.4 8.1-1.35-2.7-5.4-4.443-5.4-8.1a5.4 5.4 0 1 1 10.8 0Zm-4.5 0a.9.9 0 1 1-1.8 0 .9.9 0 0 1 1.8 0Z" stroke="#000" stroke-linecap="round" stroke-linejoin="round" />
</symbol><symbol fill="none" viewBox="0 0 38 36" id="pin2">
  <path d="M26.2 19.565c6.357 1.242 10.8 4.08 10.8 7.382C37 31.395 28.941 35 19 35S1 31.395 1 26.947c0-3.302 4.443-6.14 10.8-7.382m7.2 6.488V11.737m0 0c2.982 0 5.4-2.404 5.4-5.369C24.4 3.404 21.982 1 19 1s-5.4 2.404-5.4 5.368c0 2.965 2.418 5.369 5.4 5.369Z" stroke="#000" stroke-linecap="round" stroke-linejoin="round" />
</symbol><symbol fill="none" viewBox="0 0 14 17" id="recycle">
  <path d="M10.53 13.458A6.164 6.164 0 0 0 13 8.5c0-3.385-2.686-6.13-6-6.13h-.353M7 14.63c-3.314 0-6-2.745-6-6.13 0-2.038.973-3.843 2.47-4.958M6.295 16l1.412-1.442-1.412-1.443m1.412-9.23L6.294 2.442 7.706 1" stroke="#000" stroke-linecap="round" stroke-linejoin="round" />
</symbol><symbol fill="none" viewBox="0 0 20 25" id="sbp">
  <g clip-path="url(#sbp_a)">
    <path d="m0 6 3 5.368v3.274L.004 20 0 6Z" fill="#5B57A2" />
    <path d="m11 8.977 2.954-1.97L20 7l-9 6V8.977Z" fill="#D90751" />
    <path d="M10.99 5.593 11 13l-2-1.928V0l1.99 5.593Z" fill="#FAB718" />
    <path d="M20 6.995 14.53 7l-2.686-1.7L9 0l11 6.995Z" fill="#ED6F26" />
    <path d="M11 19.444v-3.567L9 14l.001 11L11 19.444Z" fill="#63B22F" />
    <path d="M14.272 18 2.99 11.228 0 6l20 11.993-5.728.007Z" fill="#1487C9" />
    <path d="m9 25 2.86-5.305 2.67-1.688L20 18 9 25Z" fill="#017F36" />
    <path d="m0 20 9-5.237L5.974 13l-2.813 1.638L0 20Z" fill="#984995" />
  </g>
  <defs>
    
  </defs>
</symbol><clipPath id="sbp_a">
      <path fill="#fff" d="M0 0h20v25H0z" />
    </clipPath><symbol fill="none" viewBox="0 0 14 14" id="search">
  <path d="m13 13-2.333-2.333m1.666-4A5.667 5.667 0 1 1 1 6.667a5.667 5.667 0 0 1 11.333 0Z" stroke="#000" stroke-linecap="round" stroke-linejoin="round" />
</symbol><symbol fill="none" viewBox="0 0 37 112" id="shipping-01">
  <path fill-rule="evenodd" clip-rule="evenodd" d="M19.005.052a2.472 2.472 0 0 0-1.01 0c-.378.079-.725.275-1.227.558l-.067.038L9.3 4.82 1.9 8.991l-.071.04c-.531.298-.898.505-1.17.806a2.51 2.51 0 0 0-.534.92C0 11.143 0 11.567 0 12.183v16.633c0 .618 0 1.04.126 1.428.11.34.292.654.533.92.273.3.64.507 1.17.806l.071.04 14.8 8.342.068.038c.502.283.85.48 1.227.558.333.07.677.07 1.01 0 .378-.079.725-.275 1.227-.558l.068-.038 14.8-8.343.07-.04c.531-.298.898-.505 1.17-.806a2.51 2.51 0 0 0 .534-.92c.127-.386.126-.81.126-1.426V12.184c0-.618 0-1.04-.126-1.427a2.537 2.537 0 0 0-.533-.92c-.273-.301-.64-.508-1.17-.807l-.071-.04L20.3.649 20.232.61c-.502-.283-.85-.48-1.227-.558Zm-.806.98c.199-.042.403-.042.602 0 .206.042.412.152 1.008.487l14.8 8.343c.51.287.746.425.898.556a.497.497 0 0 0-.252.064l-7.822 4.409-17.105-9.503 6.864-3.869c.595-.335.8-.445 1.007-.488ZM9.306 5.963 2.392 9.862c-.511.287-.747.425-.898.556a.497.497 0 0 1 .252.064L18.5 19.926l7.91-4.46L9.307 5.965ZM27.501 16 19 20.792v18.986a.497.497 0 0 1-.019.136c.17-.066.397-.19.828-.433l14.8-8.343c.628-.354.84-.48.992-.647.145-.16.255-.35.323-.557.07-.217.076-.469.076-1.198V12.264c0-.644-.005-.916-.054-1.12a.498.498 0 0 1-.2.21l-7.819 4.406a.5.5 0 0 1-.426.24ZM18 39.778c0 .047.007.093.019.136-.17-.066-.397-.19-.827-.433l-14.8-8.343c-.63-.354-.842-.48-.993-.647a1.536 1.536 0 0 1-.323-.557c-.07-.217-.076-.469-.076-1.198V12.264c0-.644.005-.916.054-1.12a.498.498 0 0 0 .2.21L18 20.791v18.986Z" fill="#000" />
  <path d="M18.5 61v50m0 0-5-5m5 5 5-5" stroke="#000" stroke-linecap="round" stroke-linejoin="round" />
</symbol><symbol fill="none" viewBox="0 0 38 106" id="shipping-02">
  <path d="M26.2 19.565c6.357 1.242 10.8 4.08 10.8 7.382C37 31.395 28.941 35 19 35S1 31.395 1 26.947c0-3.302 4.443-6.14 10.8-7.382m7.2 6.488V11.737m0 0c2.982 0 5.4-2.404 5.4-5.369C24.4 3.404 21.982 1 19 1s-5.4 2.404-5.4 5.368c0 2.965 2.418 5.369 5.4 5.369ZM19 55v50m0 0-5-5m5 5 5-5" stroke="#000" stroke-linecap="round" stroke-linejoin="round" />
</symbol><symbol fill="none" viewBox="0 0 38 38" id="shipping-03">
  <path d="M21.753 12.433a6.3 6.3 0 1 1 1.694-8.467M8.2 33.557h4.699a7.61 7.61 0 0 1 1.815.22l4.964 1.206a7.71 7.71 0 0 0 3.288.077l5.49-1.068a7.568 7.568 0 0 0 3.829-1.994l3.883-3.778a2.706 2.706 0 0 0 0-3.904 2.898 2.898 0 0 0-3.71-.256l-4.525 3.302a3.81 3.81 0 0 1-2.248.729h-4.371 2.782c1.568 0 2.838-1.236 2.838-2.761v-.553c0-1.266-.886-2.37-2.149-2.677l-4.294-1.044a9.054 9.054 0 0 0-2.133-.255c-1.737 0-4.88 1.438-4.88 1.438L8.2 24.445M33.4 9.1a6.3 6.3 0 1 1-12.6 0 6.3 6.3 0 0 1 12.6 0ZM1 23.68v10.44c0 1.008 0 1.512.196 1.897a1.8 1.8 0 0 0 .787.787C2.368 37 2.872 37 3.88 37h1.44c1.008 0 1.512 0 1.897-.196a1.8 1.8 0 0 0 .787-.787c.196-.385.196-.889.196-1.897V23.68c0-1.008 0-1.512-.196-1.897a1.8 1.8 0 0 0-.787-.787c-.385-.196-.889-.196-1.897-.196H3.88c-1.008 0-1.512 0-1.897.196a1.8 1.8 0 0 0-.787.787C1 22.168 1 22.672 1 23.68Z" stroke="#000" stroke-linecap="round" stroke-linejoin="round" />
</symbol><symbol fill="none" viewBox="0 0 14 14" id="small-pin">
  <path d="M4.564 9.436 1 13m5.654-9.218-.983.984c-.08.08-.12.12-.166.152a.63.63 0 0 1-.13.07c-.053.02-.108.03-.22.053l-2.308.462c-.6.12-.9.18-1.04.338a.63.63 0 0 0-.153.505c.029.21.245.425.678.858l4.464 4.464c.433.433.649.65.858.678a.63.63 0 0 0 .505-.153c.158-.14.218-.44.338-1.04l.462-2.309c.022-.11.033-.166.054-.218a.63.63 0 0 1 .07-.13c.031-.046.071-.086.151-.167l.984-.983c.051-.051.077-.077.105-.1a.624.624 0 0 1 .08-.053c.03-.018.064-.032.13-.06l1.572-.674c.458-.197.688-.295.792-.454a.63.63 0 0 0 .09-.47c-.037-.186-.214-.363-.566-.715L9.18 1.58c-.353-.353-.53-.53-.716-.567a.63.63 0 0 0-.47.09c-.16.104-.257.334-.454.792l-.673 1.571c-.029.067-.043.1-.061.132a.63.63 0 0 1-.054.08 1.307 1.307 0 0 1-.099.104Z" stroke="#000" stroke-linecap="round" stroke-linejoin="round" />
</symbol><symbol fill="none" viewBox="0 0 16 16" id="smile">
  <path d="M5.2 9.4s1.05 1.4 2.8 1.4c1.75 0 2.8-1.4 2.8-1.4m-.7-3.5h.007M5.9 5.9h.007M15 8A7 7 0 1 1 1 8a7 7 0 0 1 14 0Zm-4.55-2.1a.35.35 0 1 1-.7 0 .35.35 0 0 1 .7 0Zm-4.2 0a.35.35 0 1 1-.7 0 .35.35 0 0 1 .7 0Z" stroke="#767676" stroke-linecap="round" stroke-linejoin="round" />
</symbol><symbol fill="none" viewBox="0 0 20 20" id="suggest-price">
  <path d="M11.377 6.717a3.15 3.15 0 1 1 .847-4.233M4.6 17.277h2.35c.306 0 .61.037.907.11l2.482.603c.539.131 1.1.144 1.644.038l2.745-.534a3.784 3.784 0 0 0 1.914-.997l1.942-1.889a1.353 1.353 0 0 0 0-1.951 1.45 1.45 0 0 0-1.855-.129l-2.263 1.651a1.905 1.905 0 0 1-1.124.365h-2.185 1.391c.784 0 1.42-.618 1.42-1.38v-.277c0-.633-.444-1.185-1.075-1.338l-2.147-.522a4.521 4.521 0 0 0-1.067-.128c-.869 0-2.44.719-2.44.719L4.6 12.722M17.2 5.05a3.15 3.15 0 1 1-6.3 0 3.15 3.15 0 0 1 6.3 0ZM1 12.34v5.22c0 .504 0 .756.098.949a.9.9 0 0 0 .393.393c.193.098.445.098.949.098h.72c.504 0 .756 0 .949-.098a.9.9 0 0 0 .393-.393c.098-.193.098-.445.098-.949v-5.22c0-.504 0-.756-.098-.949a.9.9 0 0 0-.393-.393c-.193-.098-.445-.098-.949-.098h-.72c-.504 0-.756 0-.949.098a.9.9 0 0 0-.393.393C1 11.584 1 11.836 1 12.34Z" stroke="#000" stroke-linecap="round" stroke-linejoin="round" />
</symbol><symbol fill="none" viewBox="0 0 38 38" id="suggest-price-thin">
  <path d="M21.753 12.433a6.3 6.3 0 1 1 1.694-8.467M8.2 33.557h4.699a7.61 7.61 0 0 1 1.815.22l4.964 1.206a7.71 7.71 0 0 0 3.288.077l5.49-1.068a7.568 7.568 0 0 0 3.829-1.994l3.883-3.778a2.706 2.706 0 0 0 0-3.904 2.898 2.898 0 0 0-3.71-.256l-4.525 3.302a3.81 3.81 0 0 1-2.248.729h-4.371 2.782c1.568 0 2.838-1.236 2.838-2.761v-.553c0-1.266-.886-2.37-2.149-2.677l-4.294-1.044a9.054 9.054 0 0 0-2.133-.255c-1.737 0-4.88 1.438-4.88 1.438L8.2 24.445M33.4 9.1a6.3 6.3 0 1 1-12.6 0 6.3 6.3 0 0 1 12.6 0ZM1 23.68v10.44c0 1.008 0 1.512.196 1.897a1.8 1.8 0 0 0 .787.787C2.368 37 2.872 37 3.88 37h1.44c1.008 0 1.512 0 1.897-.196a1.8 1.8 0 0 0 .787-.787c.196-.385.196-.889.196-1.897V23.68c0-1.008 0-1.512-.196-1.897a1.8 1.8 0 0 0-.787-.787c-.385-.196-.889-.196-1.897-.196H3.88c-1.008 0-1.512 0-1.897.196a1.8 1.8 0 0 0-.787.787C1 22.168 1 22.672 1 23.68Z" stroke="#000" stroke-linecap="round" stroke-linejoin="round" />
</symbol><symbol fill="none" viewBox="0 0 14 14" id="tag">
  <path d="M4.644 4.644h.006M2.557 1.57l-.988.988c-.21.21-.315.315-.39.437a1.215 1.215 0 0 0-.145.351C1 3.485 1 3.634 1 3.931v1.73c0 .297 0 .446.034.586.03.124.078.242.145.35.075.123.18.228.39.439l4.658 4.657c.722.722 1.082 1.083 1.498 1.218.366.119.76.119 1.126 0 .417-.135.777-.496 1.499-1.218l1.343-1.343c.722-.722 1.083-1.082 1.218-1.499a1.82 1.82 0 0 0 0-1.126c-.135-.416-.496-.776-1.218-1.498L7.036 1.569c-.21-.21-.316-.315-.438-.39a1.215 1.215 0 0 0-.351-.145C6.107 1 5.958 1 5.66 1H3.93c-.297 0-.446 0-.586.034-.124.03-.242.078-.35.145-.123.075-.228.18-.438.39Zm2.39 3.075a.304.304 0 1 1-.606 0 .304.304 0 0 1 .607 0Z" stroke="#000" stroke-linecap="round" stroke-linejoin="round" />
</symbol><symbol fill="none" viewBox="0 0 22 20" id="timer-clock">
  <path d="m21 9.5-2.03 2-2.03-2m2.278 1.5c.037-.328.056-.662.056-1 0-4.97-4.09-9-9.137-9C5.091 1 1 5.03 1 10s4.09 9 9.137 9a9.172 9.172 0 0 0 7.107-3.343M10.137 5v5l3.046 2" stroke="#000" stroke-linecap="round" stroke-linejoin="round" />
</symbol><symbol fill="none" viewBox="0 0 42 42" id="trade">
  <path d="M27.956 21.735A6.992 6.992 0 0 1 14.942 24.5l-.206-.356m-.692-3.878A6.992 6.992 0 0 1 27.058 17.5l.205.356M14 25.995l.602-2.25 2.249.603m8.298-6.696 2.249.603.602-2.25M15.404 38.202a2.482 2.482 0 0 1 1.84.493l2.406 1.847a2.21 2.21 0 0 0 2.695 0l2.498-1.918a2.21 2.21 0 0 1 1.638-.438l3.124.411a2.215 2.215 0 0 0 2.335-1.349l1.202-2.906a2.206 2.206 0 0 1 1.2-1.2l2.907-1.202a2.214 2.214 0 0 0 1.348-2.336l-.395-3.01a2.482 2.482 0 0 1 .493-1.84l1.847-2.407a2.21 2.21 0 0 0 0-2.696l-1.918-2.498a2.21 2.21 0 0 1-.438-1.637l.411-3.125a2.215 2.215 0 0 0-1.348-2.335l-2.907-1.202a2.206 2.206 0 0 1-1.2-1.2L31.94 4.747a2.214 2.214 0 0 0-2.335-1.349l-3.124.411a2.2 2.2 0 0 1-1.636-.433l-2.497-1.918a2.21 2.21 0 0 0-2.696 0l-2.497 1.918a2.23 2.23 0 0 1-1.638.438l-3.124-.411a2.215 2.215 0 0 0-2.335 1.349l-1.2 2.906a2.235 2.235 0 0 1-1.2 1.2l-2.907 1.2a2.215 2.215 0 0 0-1.348 2.336l.41 3.124a2.222 2.222 0 0 1-.437 1.635l-1.918 2.498a2.21 2.21 0 0 0 0 2.696l1.918 2.497a2.21 2.21 0 0 1 .438 1.638l-.411 3.124a2.215 2.215 0 0 0 1.348 2.336l2.907 1.202a2.21 2.21 0 0 1 1.2 1.2l1.202 2.907a2.214 2.214 0 0 0 2.335 1.349l3.009-.398Z" stroke="#000" stroke-linecap="round" stroke-linejoin="round" />
</symbol><symbol fill="none" viewBox="0 0 18 18" id="trash">
  <path d="M6.333 1h5.334M1 3.667h16m-1.778 0-.623 9.35c-.094 1.403-.14 2.104-.443 2.636-.267.469-.67.845-1.155 1.08-.55.267-1.253.267-2.66.267H7.659c-1.406 0-2.109 0-2.66-.267a2.667 2.667 0 0 1-1.154-1.08c-.303-.532-.35-1.233-.443-2.636l-.623-9.35m4.444 4v4.444m3.556-4.444v4.444" stroke="#979797" stroke-linecap="round" stroke-linejoin="round" />
</symbol><symbol fill="none" viewBox="0 0 16 16" id="user">
  <path d="M3.321 13.207A2.8 2.8 0 0 1 5.9 11.5h4.2a2.8 2.8 0 0 1 2.579 1.707M10.8 6.25a2.8 2.8 0 1 1-5.6 0 2.8 2.8 0 0 1 5.6 0ZM15 8A7 7 0 1 1 1 8a7 7 0 0 1 14 0Z" stroke="#000" stroke-linecap="round" stroke-linejoin="round" />
</symbol><symbol fill="none" viewBox="0 0 15 14" id="user-edit">
  <path d="M5.603 9.333h-.986c-.918 0-1.377 0-1.75.115a2.649 2.649 0 0 0-1.754 1.778C1 11.604 1 12.07 1 13m8.22-9c0 1.657-1.325 3-2.959 3-1.634 0-2.96-1.343-2.96-3s1.326-3 2.96-3 2.96 1.343 2.96 3Zm-2.3 9 2.04-.59c.097-.029.146-.043.191-.064a.653.653 0 0 0 .115-.069c.04-.03.076-.066.148-.14l4.246-4.304a1.19 1.19 0 0 0 0-1.666 1.151 1.151 0 0 0-1.644 0L7.77 10.47a1.38 1.38 0 0 0-.137.15.67.67 0 0 0-.068.117c-.02.046-.035.095-.063.194L6.92 13Z" stroke="#000" stroke-linecap="round" stroke-linejoin="round" />
</symbol><symbol fill="none" viewBox="0 0 51 16" id="visa">
  <g clip-path="url(#visa_a)">
    <path d="M22.313 15.77H18.31L20.814.28h4.004l-2.505 15.49ZM36.83.66A9.87 9.87 0 0 0 33.238 0c-3.955 0-6.74 2.109-6.757 5.124-.033 2.225 1.994 3.46 3.51 4.202 1.55.758 2.076 1.253 2.076 1.928-.016 1.038-1.252 1.516-2.405 1.516-1.6 0-2.456-.246-3.758-.824l-.527-.247-.56 3.477c.939.428 2.67.807 4.466.824 4.202 0 6.938-2.076 6.97-5.29.016-1.763-1.054-3.114-3.361-4.218-1.401-.708-2.259-1.186-2.259-1.911.016-.66.726-1.335 2.307-1.335a6.804 6.804 0 0 1 2.983.593l.362.165.545-3.345Zm5.323 9.622c.33-.89 1.599-4.333 1.599-4.333-.017.033.33-.907.527-1.483l.28 1.334s.758 3.708.923 4.482h-3.329ZM47.097.281h-3.098c-.955 0-1.681.28-2.093 1.285l-5.949 14.203h4.202l.84-2.323h5.142c.116.543.478 2.323.478 2.323h3.708L47.097.281ZM14.966.28l-3.922 10.562-.429-2.142c-.725-2.471-3-5.157-5.537-6.492l3.593 13.545h4.235L19.2.28h-4.234Z" fill="#00579F" />
    <path d="M7.4.28H.957L.89.595C5.917 1.879 9.246 4.977 10.613 8.7l-1.4-7.118C8.982.593 8.273.313 7.4.28Z" fill="#FAA61A" />
  </g>
  <defs>
    
  </defs>
</symbol><clipPath id="visa_a">
      <path fill="#fff" transform="translate(.89)" d="M0 0h49.438v16H0z" />
    </clipPath></defs></svg>