<svg width="26" height="16" viewBox="0 0 26 16" fill="none" xmlns="http://www.w3.org/2000/svg">
<path d="M16.4453 1.71118H9.44531V14.289H16.4453V1.71118Z" fill="#FF5F00"/>
<path d="M9.88889 8C9.88889 5.44444 11.0889 3.17778 12.9333 1.71111C11.5778 0.644447 9.86666 0 8 0C3.57778 0 0 3.57778 0 8C0 12.4222 3.57778 16 8 16C9.86666 16 11.5778 15.3556 12.9333 14.2889C11.0889 12.8444 9.88889 10.5556 9.88889 8Z" fill="#EB001B"/>
<path d="M25.8884 8C25.8884 12.4222 22.3106 16 17.8884 16C16.0217 16 14.3106 15.3556 12.9551 14.2889C14.8217 12.8222 15.9995 10.5556 15.9995 8C15.9995 5.44444 14.7995 3.17778 12.9551 1.71111C14.3106 0.644447 16.0217 0 17.8884 0C22.3106 0 25.8884 3.6 25.8884 8Z" fill="#F79E1B"/>
</svg>
