<svg width="54" height="16" viewBox="0 0 54 16" fill="none" xmlns="http://www.w3.org/2000/svg">
<path fill-rule="evenodd" clip-rule="evenodd" d="M8.79906 1.73558C9.21836 1.73307 10.4645 1.62084 10.9923 3.40228C11.3479 4.60228 11.9143 6.56794 12.6915 9.29925H13.008C13.8415 6.41971 14.414 4.45406 14.7257 3.40228C15.259 1.60229 16.5923 1.73562 17.1257 1.73562L21.2404 1.73562V14.5356H17.0465V6.99236H16.7653L14.4274 14.5356H11.272L8.93413 6.98677H8.65289V14.5356H4.45898V1.73562L8.79906 1.73558ZM27.2628 1.73562V9.28447H27.5974L30.4412 3.07711C30.9933 1.84182 32.1698 1.73562 32.1698 1.73562H36.2283V14.5356H31.9468V6.98677H31.6122L28.8241 13.1941C28.2721 14.4238 27.0398 14.5356 27.0398 14.5356H22.9813V1.73562H27.2628ZM51.027 7.81827C50.4298 9.51066 48.5543 10.7227 46.4778 10.7227H41.9879V14.5356H37.9164V7.81827H51.027Z" fill="#0F754E"/>
<path fill-rule="evenodd" clip-rule="evenodd" d="M46.6745 1.7356H37.7031C37.9166 4.58531 40.3707 7.02485 42.9112 7.02485H51.3102C51.7949 4.6564 50.1264 1.7356 46.6745 1.7356Z" fill="url(#paint0_linear_147_4421)"/>
<defs>
<linearGradient id="paint0_linear_147_4421" x1="51.3926" y1="5.06276" x2="37.7031" y2="5.06276" gradientUnits="userSpaceOnUse">
<stop stop-color="#1F5CD7"/>
<stop offset="1" stop-color="#02AEFF"/>
</linearGradient>
</defs>
</svg>
