<svg width="14" height="14" viewBox="0 0 14 14" fill="none" xmlns="http://www.w3.org/2000/svg">
<path d="M5.36536 12.4C5.80134 12.7734 6.37402 13 7.00123 13C7.62844 13 8.20112 12.7734 8.63709 12.4M1.00012 3.29194C0.991249 2.42113 1.47504 1.60795 2.2566 1.18M12.9999 3.29194C13.0088 2.42113 12.525 1.60795 11.7434 1.18M10.7109 4.6C10.7109 3.64522 10.3201 2.72955 9.62438 2.05442C8.92867 1.37928 7.9851 1 7.00123 1C6.01736 1 5.07378 1.37928 4.37808 2.05442C3.68238 2.72955 3.29154 3.64522 3.29154 4.6C3.29154 6.45411 2.80957 7.72357 2.27117 8.56325C1.81702 9.27153 1.58994 9.62566 1.59827 9.72446C1.60749 9.83384 1.63137 9.87556 1.7222 9.94095C1.80424 10 2.17405 10 2.91368 10H11.0888C11.8284 10 12.1982 10 12.2803 9.94095C12.3711 9.87556 12.395 9.83384 12.4042 9.72446C12.4125 9.62566 12.1854 9.27153 11.7313 8.56325C11.1929 7.72358 10.7109 6.45411 10.7109 4.6Z" stroke="black" stroke-linecap="round" stroke-linejoin="round"/>
</svg>
