<svg width="20" height="21" viewBox="0 0 20 21" fill="none" xmlns="http://www.w3.org/2000/svg">
<path d="M7.54805 19.05C8.202 19.6412 9.06102 20 10.0018 20C10.9427 20 11.8017 19.6412 12.4556 19.05M1.00018 4.6289C0.986874 3.25012 1.71257 1.96258 2.8849 1.285M18.9998 4.6289C19.0131 3.25012 18.2874 1.96259 17.1151 1.285M15.5664 6.7C15.5664 5.18827 14.9801 3.73845 13.9366 2.66949C12.893 1.60053 11.4776 1 10.0018 1C8.52604 1 7.11068 1.60053 6.06712 2.66949C5.02357 3.73845 4.43731 5.18827 4.43731 6.7C4.43731 9.63568 3.71436 11.6457 2.90675 12.9751C2.22552 14.0966 1.88491 14.6573 1.8974 14.8137C1.91123 14.9869 1.94705 15.053 2.0833 15.1565C2.20636 15.25 2.76108 15.25 3.87052 15.25H16.1332C17.2426 15.25 17.7973 15.25 17.9204 15.1565C18.0566 15.053 18.0925 14.9869 18.1063 14.8137C18.1188 14.6573 17.7782 14.0966 17.0969 12.9751C16.2893 11.6457 15.5664 9.63568 15.5664 6.7Z" stroke="black" stroke-linecap="round" stroke-linejoin="round"/>
</svg>
