<svg width="14" height="15" viewBox="0 0 14 15" fill="none" xmlns="http://www.w3.org/2000/svg">
<path d="M2.68 1.416L1.64 2.768C1.43401 3.03579 1.33102 3.16968 1.33341 3.28175C1.33549 3.37929 1.38239 3.47075 1.46117 3.53089C1.55169 3.6 1.72335 3.6 2.06667 3.6H11.9333C12.2766 3.6 12.4483 3.6 12.5388 3.53089C12.6176 3.47075 12.6645 3.37929 12.6666 3.28175C12.669 3.16968 12.566 3.03579 12.36 2.768L11.32 1.416M2.68 1.416C2.79733 1.26347 2.856 1.1872 2.93035 1.13219C2.9962 1.08348 3.07077 1.04712 3.15026 1.02499C3.24 1 3.33778 1 3.53333 1H10.4667C10.6622 1 10.76 1 10.8497 1.02499C10.9292 1.04712 11.0038 1.08348 11.0697 1.13219C11.144 1.1872 11.2027 1.26347 11.32 1.416M2.68 1.416L1.42667 3.04533C1.26836 3.25113 1.18921 3.35403 1.133 3.46735C1.08312 3.5679 1.04675 3.6743 1.02477 3.78392C1 3.90746 1 4.03608 1 4.29333L1 11.92C1 12.6481 1 13.0121 1.14532 13.2902C1.27316 13.5348 1.47713 13.7337 1.72801 13.8583C2.01323 14 2.3866 14 3.13333 14L10.8667 14C11.6134 14 11.9868 14 12.272 13.8583C12.5229 13.7337 12.7268 13.5348 12.8547 13.2902C13 13.0121 13 12.6481 13 11.92V4.29333C13 4.03608 13 3.90746 12.9752 3.78392C12.9533 3.6743 12.9169 3.5679 12.867 3.46735C12.8108 3.35403 12.7316 3.25113 12.5733 3.04533L11.32 1.416M9.66667 6.2C9.66667 6.88956 9.38572 7.55088 8.88562 8.03848C8.38552 8.52607 7.70724 8.8 7 8.8C6.29276 8.8 5.61448 8.52607 5.11438 8.03848C4.61428 7.55088 4.33333 6.88956 4.33333 6.2" stroke="black" stroke-linecap="round" stroke-linejoin="round"/>
</svg>
