<svg width="16" height="15" viewBox="0 0 16 15" fill="none" xmlns="http://www.w3.org/2000/svg">
<path d="M8 10.5789C8 12.4683 9.567 14 11.5 14C13.433 14 15 12.4683 15 10.5789C15 8.68955 13.433 7.15789 11.5 7.15789C9.567 7.15789 8 8.68955 8 10.5789ZM8 10.5789C8 9.80865 8.26046 9.09781 8.7 8.52598V2.36842M8 10.5789C8 11.1437 8.13999 11.6764 8.38789 12.1459C7.79817 12.6328 6.43609 12.9737 4.85 12.9737C2.7237 12.9737 1 12.361 1 11.6053V2.36842M8.7 2.36842C8.7 3.12418 6.9763 3.73684 4.85 3.73684C2.7237 3.73684 1 3.12418 1 2.36842M8.7 2.36842C8.7 1.61266 6.9763 1 4.85 1C2.7237 1 1 1.61266 1 2.36842M1 8.52632C1 9.28207 2.7237 9.89474 4.85 9.89474C6.3823 9.89474 7.70553 9.57656 8.32525 9.11596M8.7 5.44737C8.7 6.20313 6.9763 6.81579 4.85 6.81579C2.7237 6.81579 1 6.20313 1 5.44737" stroke="black" stroke-linecap="round" stroke-linejoin="round"/>
</svg>
