<svg width="14" height="14" viewBox="0 0 14 14" fill="none" xmlns="http://www.w3.org/2000/svg">
<path d="M5.2 5.2H5.206M8.8 8.8H8.806M9.4 4.6L4.6 9.4M4.20026 2.09122C4.68256 2.05273 5.14043 1.86307 5.50868 1.54925C6.36803 0.816916 7.63197 0.816916 8.49132 1.54925C8.85957 1.86307 9.31744 2.05273 9.79974 2.09122C10.9252 2.18103 11.819 3.07477 11.9088 4.20026C11.9473 4.68256 12.1369 5.14043 12.4507 5.50868C13.1831 6.36803 13.1831 7.63197 12.4507 8.49132C12.1369 8.85957 11.9473 9.31744 11.9088 9.79974C11.819 10.9252 10.9252 11.819 9.79974 11.9088C9.31744 11.9473 8.85957 12.1369 8.49132 12.4507C7.63197 13.1831 6.36803 13.1831 5.50868 12.4507C5.14043 12.1369 4.68256 11.9473 4.20026 11.9088C3.07477 11.819 2.18103 10.9252 2.09122 9.79974C2.05273 9.31744 1.86307 8.85957 1.54925 8.49132C0.816916 7.63197 0.816916 6.36803 1.54925 5.50868C1.86307 5.14043 2.05273 4.68256 2.09122 4.20026C2.18103 3.07477 3.07477 2.18103 4.20026 2.09122ZM5.5 5.2C5.5 5.36569 5.36569 5.5 5.2 5.5C5.03431 5.5 4.9 5.36569 4.9 5.2C4.9 5.03431 5.03431 4.9 5.2 4.9C5.36569 4.9 5.5 5.03431 5.5 5.2ZM9.1 8.8C9.1 8.96569 8.96569 9.1 8.8 9.1C8.63431 9.1 8.5 8.96569 8.5 8.8C8.5 8.63431 8.63431 8.5 8.8 8.5C8.96569 8.5 9.1 8.63431 9.1 8.8Z" stroke="black" stroke-linecap="round" stroke-linejoin="round"/>
</svg>
