<svg width="26" height="16" viewBox="0 0 26 16" fill="none" xmlns="http://www.w3.org/2000/svg">
<g clip-path="url(#clip0_445_3725)">
<path d="M16.4453 1.71094H9.44531V14.2887H16.4453V1.71094Z" fill="#FF5F00"/>
<path d="M9.88889 8C9.88889 5.44444 11.0889 3.17778 12.9333 1.71111C11.5778 0.644447 9.86666 0 8 0C3.57778 0 0 3.57778 0 8C0 12.4222 3.57778 16 8 16C9.86666 16 11.5778 15.3556 12.9333 14.2889C11.0889 12.8444 9.88889 10.5556 9.88889 8Z" fill="#EB001B"/>
<path d="M25.8903 8C25.8903 12.4222 22.3126 16 17.8904 16C16.0237 16 14.3126 15.3556 12.957 14.2889C14.8237 12.8222 16.0015 10.5556 16.0015 8C16.0015 5.44444 14.8015 3.17778 12.957 1.71111C14.3126 0.644447 16.0237 0 17.8904 0C22.3126 0 25.8903 3.6 25.8903 8Z" fill="#F79E1B"/>
</g>
<defs>
<clipPath id="clip0_445_3725">
<rect width="25.8889" height="16" fill="white"/>
</clipPath>
</defs>
</svg>
