<svg width="54" height="16" viewBox="0 0 54 16" fill="none" xmlns="http://www.w3.org/2000/svg">
<path fill-rule="evenodd" clip-rule="evenodd" d="M8.80101 1.73558C9.22031 1.73307 10.4664 1.62084 10.9943 3.40228C11.3498 4.60228 11.9162 6.56794 12.6934 9.29925H13.0099C13.8434 6.41971 14.416 4.45406 14.7276 3.40228C15.2609 1.60229 16.5943 1.73562 17.1276 1.73562L21.2424 1.73562V14.5356H17.0485V6.99236H16.7673L14.4294 14.5356H11.274L8.93608 6.98677H8.65485V14.5356H4.46094V1.73562L8.80101 1.73558ZM27.2648 1.73562V9.28447H27.5993L30.4432 3.07711C30.9952 1.84182 32.1718 1.73562 32.1718 1.73562H36.2302V14.5356H31.9487V6.98677H31.6142L28.8261 13.1941C28.274 14.4238 27.0417 14.5356 27.0417 14.5356H22.9833V1.73562H27.2648ZM51.029 7.81827C50.4318 9.51066 48.5563 10.7227 46.4798 10.7227H41.9898V14.5356H37.9184V7.81827H51.029Z" fill="#0F754E"/>
<path fill-rule="evenodd" clip-rule="evenodd" d="M46.6745 1.73584H37.7031C37.9166 4.58555 40.3707 7.02509 42.9112 7.02509H51.3102C51.7949 4.65665 50.1264 1.73584 46.6745 1.73584Z" fill="url(#paint0_linear_445_3739)"/>
<defs>
<linearGradient id="paint0_linear_445_3739" x1="51.3926" y1="5.06301" x2="37.7031" y2="5.06301" gradientUnits="userSpaceOnUse">
<stop stop-color="#1F5CD7"/>
<stop offset="1" stop-color="#02AEFF"/>
</linearGradient>
</defs>
</svg>
