<svg width="39" height="39" viewBox="0 0 39 39" fill="none" xmlns="http://www.w3.org/2000/svg">
<path d="M14.3235 35.4116C14.9299 35.3314 15.5424 35.4959 16.0254 35.8679L18.2514 37.5761C18.9872 38.1413 20.0108 38.1413 20.7445 37.5761L23.0548 35.8022C23.4864 35.4712 24.0311 35.3253 24.5696 35.3972L27.4595 35.7775C28.3782 35.8988 29.2641 35.3869 29.6197 34.5298L30.7316 31.8412C30.9392 31.3376 31.338 30.9388 31.8416 30.7312L34.53 29.6192C35.3871 29.2657 35.8989 28.3777 35.7776 27.4589L35.4118 24.6737C35.3316 24.0673 35.496 23.4548 35.8681 22.9717L37.5761 20.7456C38.1413 20.0098 38.1413 18.9861 37.5761 18.2523L35.8023 15.9419C35.4714 15.5103 35.3254 14.9656 35.3974 14.427L35.7776 11.537C35.8989 10.6182 35.3871 9.73227 34.53 9.37667L31.8416 8.26464C31.338 8.05704 30.9392 7.65827 30.7316 7.15468L29.6197 4.46608C29.2662 3.60894 28.3782 3.09712 27.4595 3.2184L24.5696 3.59866C24.0311 3.67266 23.4864 3.52672 23.0568 3.19784L20.7466 1.42395C20.0108 0.858685 18.9872 0.858685 18.2534 1.42395L15.9432 3.19784C15.5115 3.52672 14.9668 3.67266 14.4283 3.60277L11.5385 3.22251C10.6197 3.10123 9.73384 3.61305 9.37826 4.4702L8.26835 7.15879C8.0587 7.66033 7.65996 8.05909 7.15844 8.26876L4.47 9.37873C3.61291 9.73433 3.10112 10.6202 3.22238 11.5391L3.60263 14.4291C3.67251 14.9676 3.52658 15.5123 3.19772 15.9419L1.42392 18.2523C0.858692 18.9882 0.858692 20.0118 1.42392 20.7456L3.19772 23.056C3.52864 23.4877 3.67457 24.0324 3.60263 24.5709L3.22238 27.4609C3.10112 28.3798 3.61291 29.2657 4.47 29.6213L7.15844 30.7333C7.66201 30.9409 8.06076 31.3397 8.26835 31.8433L9.38032 34.5319C9.73384 35.389 10.6218 35.9008 11.5405 35.7795L14.3235 35.4116Z" stroke="black" stroke-linecap="round" stroke-linejoin="round"/>
</svg>
