<svg width="20" height="20" viewBox="0 0 20 20" fill="none" xmlns="http://www.w3.org/2000/svg">
<path d="M3.7 12.0577C2.03377 12.7928 1 13.8171 1 14.95C1 17.1868 5.02944 19 10 19C14.9706 19 19 17.1868 19 14.95C19 13.8171 17.9662 12.7928 16.3 12.0577M15.4 6.4C15.4 10.0573 11.35 11.8 10 14.5C8.65 11.8 4.6 10.0573 4.6 6.4C4.6 3.41766 7.01766 1 10 1C12.9823 1 15.4 3.41766 15.4 6.4ZM10.9 6.4C10.9 6.89706 10.4971 7.3 10 7.3C9.50294 7.3 9.1 6.89706 9.1 6.4C9.1 5.90294 9.50294 5.5 10 5.5C10.4971 5.5 10.9 5.90294 10.9 6.4Z" stroke="black" stroke-linecap="round" stroke-linejoin="round"/>
</svg>
