<svg width="37" height="112" viewBox="0 0 37 112" fill="none" xmlns="http://www.w3.org/2000/svg">
<path fill-rule="evenodd" clip-rule="evenodd" d="M19.0051 0.0521524C18.6719 -0.017374 18.3282 -0.017374 17.995 0.0521524C17.6175 0.130924 17.2697 0.32713 16.768 0.610192L16.7005 0.648292L9.30047 4.81945L1.90047 8.99061L1.82983 9.03041L1.82981 9.03042C1.29903 9.32933 0.932479 9.53576 0.659193 9.83664C0.41846 10.1017 0.236685 10.4154 0.125591 10.7565C-0.000358224 11.1433 -0.000201166 11.5664 2.7895e-05 12.1833L4.78029e-05 12.2643V28.7357L2.7895e-05 28.8167C-0.000201166 29.4336 -0.000358224 29.8567 0.125591 30.2435C0.236686 30.5847 0.418461 30.8983 0.659193 31.1634C0.932482 31.4643 1.29904 31.6707 1.82983 31.9696L1.82985 31.9696L1.90047 32.0094L16.7005 40.3517L16.768 40.3898L16.768 40.3898C17.2698 40.6729 17.6175 40.8691 17.995 40.9479C18.3282 41.0174 18.6719 41.0174 19.0051 40.9479C19.3826 40.8691 19.7304 40.6729 20.2321 40.3898L20.2996 40.3517L35.0996 32.0094L35.1703 31.9696C35.7011 31.6707 36.0676 31.4643 36.3409 31.1634C36.5816 30.8983 36.7634 30.5847 36.8745 30.2435C37.0005 29.8567 37.0003 29.4336 37.0001 28.8167L37 28.7357V12.2643L37.0001 12.1833C37.0003 11.5664 37.0005 11.1433 36.8745 10.7565C36.7634 10.4154 36.5816 10.1017 36.3409 9.83664C36.0676 9.53575 35.7011 9.32932 35.1703 9.0304L35.0996 8.99061L20.2996 0.64829L20.2321 0.610194C19.7304 0.327131 19.3826 0.130925 19.0051 0.0521524ZM18.1993 1.03107C18.3977 0.989655 18.6024 0.989655 18.8008 1.03107C19.0073 1.07415 19.2127 1.18355 19.8086 1.51943L34.6086 9.86175C35.1191 10.1495 35.355 10.287 35.5065 10.4175C35.4211 10.4163 35.3342 10.437 35.2545 10.482L27.4329 14.8907L10.3282 5.38809L17.1915 1.51943C17.7874 1.18355 17.9928 1.07415 18.1993 1.03107ZM9.30607 5.96422L2.39151 9.86175C1.88102 10.1495 1.64509 10.287 1.49361 10.4175C1.57897 10.4163 1.66577 10.437 1.7455 10.482L18.5 19.926L26.4108 15.4669L9.30607 5.96422ZM27.5014 16.0001L19 20.7921L19 39.7775C19 39.8249 18.9935 39.8708 18.9811 39.9142C19.1516 39.8476 19.3783 39.7231 19.8086 39.4806L34.6086 31.1383C35.2375 30.7838 35.4497 30.6572 35.6007 30.491C35.7458 30.3312 35.8561 30.1413 35.9237 29.9339C35.9942 29.7172 36 29.465 36 28.7357V12.2643C36 11.6201 35.9955 11.3481 35.9458 11.1441C35.9027 11.2291 35.8348 11.3028 35.7455 11.3531L27.9271 15.7602C27.8339 15.9133 27.6702 15.9995 27.5014 16.0001ZM18 39.7775C18 39.8249 18.0066 39.8708 18.019 39.9142C17.8485 39.8476 17.6218 39.7231 17.1915 39.4806L2.39151 31.1383C1.76259 30.7838 1.55039 30.6572 1.39943 30.491C1.25427 30.3312 1.144 30.1413 1.07644 29.9339C1.0059 29.7172 1.00005 29.465 1.00005 28.7357V12.2643C1.00005 11.6203 1.00461 11.3483 1.05427 11.1443C1.09739 11.2292 1.16523 11.3028 1.25446 11.3531L18 20.7921L18 39.7775Z" fill="black"/>
<path d="M18.5 61L18.5 111M18.5 111L13.5 106M18.5 111L23.5 106" stroke="black" stroke-linecap="round" stroke-linejoin="round"/>
</svg>
