<svg width="38" height="106" viewBox="0 0 38 106" fill="none" xmlns="http://www.w3.org/2000/svg">
<path d="M26.2 19.5648C32.5573 20.8074 37 23.6453 37 26.9474C37 31.3947 28.9411 35 19 35C9.05887 35 1 31.3947 1 26.9474C1 23.6453 5.44274 20.8074 11.8 19.5648M19 26.0526V11.7368M19 11.7368C21.9823 11.7368 24.4 9.33332 24.4 6.36842C24.4 3.40352 21.9823 1 19 1C16.0177 1 13.6 3.40352 13.6 6.36842C13.6 9.33332 16.0177 11.7368 19 11.7368Z" stroke="black" stroke-linecap="round" stroke-linejoin="round"/>
<path d="M19 55L19 105M19 105L14 100M19 105L24 100" stroke="black" stroke-linecap="round" stroke-linejoin="round"/>
</svg>
