<svg width="38" height="38" viewBox="0 0 38 38" fill="none" xmlns="http://www.w3.org/2000/svg">
<path d="M21.7531 12.4333C20.7227 13.1679 19.4618 13.6 18.1 13.6C14.6206 13.6 11.8 10.7794 11.8 7.3C11.8 3.82061 14.6206 1 18.1 1C20.3554 1 22.3339 2.18515 23.4469 3.96666M8.2 33.5569H12.8985C13.5111 33.5569 14.12 33.6298 14.7139 33.7756L19.6784 34.982C20.7556 35.2444 21.8778 35.2699 22.9663 35.0585L28.4554 33.9906C29.9054 33.7081 31.2392 33.0138 32.2846 31.9969L36.1682 28.2191C37.2773 27.142 37.2773 25.3944 36.1682 24.3155C35.1697 23.3442 33.5885 23.2348 32.4588 24.0586L27.9327 27.3607C27.2845 27.8346 26.4958 28.0897 25.6846 28.0897H21.3139L24.0959 28.0896C25.664 28.0896 26.9341 26.854 26.9341 25.3286V24.7765C26.9341 23.5099 26.048 22.4055 24.7853 22.0994L20.4915 21.0551C19.7927 20.8857 19.077 20.8 18.3577 20.8C16.621 20.8 13.4774 22.2379 13.4774 22.2379L8.2 24.4448M33.4 9.1C33.4 12.5794 30.5794 15.4 27.1 15.4C23.6206 15.4 20.8 12.5794 20.8 9.1C20.8 5.62061 23.6206 2.8 27.1 2.8C30.5794 2.8 33.4 5.62061 33.4 9.1ZM1 23.68L1 34.12C1 35.1281 1 35.6321 1.19619 36.0172C1.36876 36.3559 1.64412 36.6312 1.98282 36.8038C2.36786 37 2.8719 37 3.88 37H5.32C6.32809 37 6.83214 37 7.21718 36.8038C7.55587 36.6312 7.83124 36.3559 8.00381 36.0172C8.2 35.6321 8.2 35.1281 8.2 34.12V23.68C8.2 22.6719 8.2 22.1679 8.00381 21.7828C7.83124 21.4441 7.55587 21.1688 7.21718 20.9962C6.83214 20.8 6.32809 20.8 5.32 20.8L3.88 20.8C2.87191 20.8 2.36786 20.8 1.98282 20.9962C1.64413 21.1688 1.36876 21.4441 1.19619 21.7828C1 22.1679 1 22.6719 1 23.68Z" stroke="black" stroke-linecap="round" stroke-linejoin="round"/>
</svg>
