<svg width="14" height="14" viewBox="0 0 14 14" fill="none" xmlns="http://www.w3.org/2000/svg">
<path d="M4.56384 9.43615L1 13M6.654 3.78217L5.67063 4.76554C5.59042 4.84575 5.55031 4.88586 5.50461 4.91773C5.46405 4.94602 5.42031 4.96943 5.37427 4.98749C5.32241 5.00783 5.26679 5.01895 5.15555 5.0412L2.84692 5.50293C2.24697 5.62292 1.94699 5.68292 1.80665 5.84108C1.68439 5.97887 1.62856 6.16327 1.65385 6.34573C1.68289 6.55518 1.89921 6.7715 2.33184 7.20413L6.79588 11.6682C7.22852 12.1008 7.44483 12.3171 7.65428 12.3462C7.83675 12.3715 8.02114 12.3156 8.15893 12.1934C8.3171 12.053 8.37709 11.7531 8.49708 11.1531L8.95881 8.84447C8.98106 8.73323 8.99218 8.67761 9.01252 8.62575C9.03058 8.57971 9.05399 8.53597 9.08228 8.49541C9.11415 8.44971 9.15426 8.4096 9.23447 8.32939L10.2178 7.34602C10.2691 7.29473 10.2948 7.26909 10.323 7.2467C10.348 7.22681 10.3745 7.20886 10.4023 7.193C10.4335 7.17514 10.4669 7.16085 10.5335 7.13228L12.105 6.4588C12.5634 6.26232 12.7927 6.16408 12.8968 6.00533C12.9878 5.8665 13.0204 5.69735 12.9874 5.53463C12.9497 5.34857 12.7734 5.17222 12.4207 4.81953L9.18048 1.57932C8.82779 1.22663 8.65145 1.05028 8.46538 1.01256C8.30266 0.979577 8.13351 1.01215 7.99468 1.10321C7.83593 1.20733 7.73769 1.43656 7.54121 1.89502L6.86773 3.46648C6.83916 3.53314 6.82488 3.56647 6.80702 3.59773C6.79116 3.6255 6.7732 3.65201 6.75331 3.67705C6.73092 3.70524 6.70528 3.73089 6.654 3.78217Z" stroke="black" stroke-linecap="round" stroke-linejoin="round"/>
</svg>
