<svg width="20" height="20" viewBox="0 0 20 20" fill="none" xmlns="http://www.w3.org/2000/svg">
<path d="M11.3765 6.71667C10.8614 7.08395 10.2309 7.3 9.55 7.3C7.8103 7.3 6.4 5.8897 6.4 4.15C6.4 2.4103 7.8103 1 9.55 1C10.6777 1 11.667 1.59258 12.2235 2.48333M4.6 17.2784H6.94926C7.25556 17.2784 7.55999 17.3149 7.85693 17.3878L10.3392 17.991C10.8778 18.1222 11.4389 18.135 11.9831 18.0293L14.7277 17.4953C15.4527 17.3541 16.1196 17.0069 16.6423 16.4985L18.5841 14.6095C19.1386 14.071 19.1386 13.1972 18.5841 12.6578C18.0848 12.1721 17.2943 12.1174 16.7294 12.5293L14.4663 14.1804C14.1422 14.4173 13.7479 14.5448 13.3423 14.5448H11.1569L12.548 14.5448C13.332 14.5448 13.9671 13.927 13.9671 13.1643V12.8882C13.9671 12.2549 13.524 11.7028 12.8927 11.5497L10.7457 11.0276C10.3963 10.9428 10.0385 10.9 9.67883 10.9C8.8105 10.9 7.2387 11.6189 7.2387 11.6189L4.6 12.7224M17.2 5.05C17.2 6.7897 15.7897 8.2 14.05 8.2C12.3103 8.2 10.9 6.7897 10.9 5.05C10.9 3.3103 12.3103 1.9 14.05 1.9C15.7897 1.9 17.2 3.3103 17.2 5.05ZM1 12.34L1 17.56C1 18.064 1 18.3161 1.09809 18.5086C1.18438 18.6779 1.32206 18.8156 1.49141 18.9019C1.68393 19 1.93595 19 2.44 19H3.16C3.66405 19 3.91607 19 4.10859 18.9019C4.27794 18.8156 4.41562 18.6779 4.50191 18.5086C4.6 18.3161 4.6 18.064 4.6 17.56V12.34C4.6 11.836 4.6 11.5839 4.50191 11.3914C4.41562 11.2221 4.27794 11.0844 4.10859 10.9981C3.91607 10.9 3.66405 10.9 3.16 10.9L2.44 10.9C1.93595 10.9 1.68393 10.9 1.49141 10.9981C1.32206 11.0844 1.18438 11.2221 1.09809 11.3914C1 11.5839 1 11.836 1 12.34Z" stroke="black" stroke-linecap="round" stroke-linejoin="round"/>
</svg>
