<svg width="14" height="14" viewBox="0 0 14 14" fill="none" xmlns="http://www.w3.org/2000/svg">
<path d="M4.64421 4.64421H4.65029M2.55653 1.56926L1.56926 2.55653C1.35917 2.76662 1.25413 2.87167 1.179 2.99425C1.1124 3.10294 1.06332 3.22143 1.03356 3.34538C1 3.48518 1 3.63373 1 3.93085L1 5.66126C1 5.95837 1 6.10693 1.03356 6.24673C1.06332 6.37068 1.1124 6.48917 1.179 6.59786C1.25413 6.72044 1.35917 6.82549 1.56926 7.03558L6.22695 11.6933C6.94853 12.4148 7.30932 12.7756 7.72536 12.9108C8.09132 13.0297 8.48553 13.0297 8.85149 12.9108C9.26752 12.7756 9.62832 12.4148 10.3499 11.6933L11.6933 10.3499C12.4148 9.62832 12.7756 9.26752 12.9108 8.85149C13.0297 8.48553 13.0297 8.09132 12.9108 7.72536C12.7756 7.30932 12.4148 6.94853 11.6933 6.22695L7.03558 1.56926C6.82549 1.35917 6.72044 1.25413 6.59786 1.179C6.48917 1.1124 6.37068 1.06332 6.24673 1.03356C6.10693 1 5.95837 1 5.66126 1L3.93085 1C3.63374 1 3.48518 1 3.34538 1.03356C3.22143 1.06332 3.10294 1.1124 2.99425 1.179C2.87167 1.25412 2.76662 1.35917 2.55653 1.56926ZM4.9479 4.64421C4.9479 4.81193 4.81193 4.9479 4.64421 4.9479C4.47649 4.9479 4.34053 4.81193 4.34053 4.64421C4.34053 4.47649 4.47649 4.34053 4.64421 4.34053C4.81193 4.34053 4.9479 4.47649 4.9479 4.64421Z" stroke="black" stroke-linecap="round" stroke-linejoin="round"/>
</svg>
