<svg width="42" height="42" viewBox="0 0 42 42" fill="none" xmlns="http://www.w3.org/2000/svg">
<path d="M27.956 21.7353C27.7274 23.8842 26.5105 25.898 24.4969 27.0612C21.1515 28.9938 16.8737 27.8469 14.9422 24.4995L14.7365 24.143M14.0436 20.2647C14.2722 18.1158 15.4891 16.102 17.5026 14.9388C20.8481 13.0062 25.1258 14.1531 27.0573 17.5005L27.2631 17.857M14 25.9946L14.6024 23.7451L16.8506 24.3479M25.1494 17.6521L27.3976 18.2549L28 16.0054M15.4038 38.2017C16.0593 38.1151 16.7215 38.2928 17.2436 38.6951L19.6501 40.5417C20.4456 41.1528 21.5522 41.1528 22.3454 40.5417L24.843 38.624C25.3096 38.2662 25.8985 38.1084 26.4807 38.1862L29.6048 38.5973C30.5981 38.7284 31.5558 38.1751 31.9402 37.2484L33.1423 34.3418C33.3667 33.7974 33.7978 33.3663 34.3422 33.1419L37.2486 31.9397C38.1752 31.5575 38.7285 30.5975 38.5974 29.6042L38.2019 26.5932C38.1152 25.9376 38.293 25.2754 38.6952 24.7532L40.5417 22.3466C41.1528 21.5511 41.1528 20.4445 40.5417 19.6511L38.6241 17.1534C38.2663 16.6868 38.1086 16.0979 38.1863 15.5157L38.5974 12.3914C38.7285 11.398 38.1752 10.4403 37.2486 10.0559L34.3422 8.85367C33.7978 8.62923 33.3667 8.19813 33.1423 7.6537L31.9402 4.74712C31.558 3.82048 30.5981 3.26716 29.6048 3.39827L26.4807 3.80937C25.8985 3.88936 25.3096 3.73159 24.8452 3.37604L22.3477 1.45832C21.5522 0.847226 20.4456 0.847226 19.6523 1.45832L17.1548 3.37604C16.6881 3.73159 16.0993 3.88936 15.5171 3.81381L12.3929 3.40271C11.3997 3.2716 10.442 3.82492 10.0576 4.75156L8.85768 7.65815C8.63103 8.20035 8.19995 8.63145 7.65778 8.85811L4.75135 10.0581C3.82476 10.4425 3.27148 11.4003 3.40258 12.3936L3.81365 15.5179C3.8892 16.1001 3.73144 16.689 3.37591 17.1534L1.4583 19.6511C0.847235 20.4467 0.847235 21.5533 1.4583 22.3466L3.37591 24.8443C3.73366 25.311 3.89143 25.8999 3.81365 26.4821L3.40258 29.6064C3.27148 30.5997 3.82476 31.5575 4.75135 31.9419L7.65778 33.1441C8.20218 33.3685 8.63325 33.7996 8.85768 34.3441L10.0598 37.2507C10.442 38.1773 11.4019 38.7306 12.3952 38.5995L15.4038 38.2017Z" stroke="black" stroke-linecap="round" stroke-linejoin="round"/>
</svg>
