<svg width="15" height="14" viewBox="0 0 15 14" fill="none" xmlns="http://www.w3.org/2000/svg">
<path d="M5.60344 9.33333H4.61699C3.69922 9.33333 3.24033 9.33333 2.86693 9.44816C2.02621 9.70669 1.3683 10.3736 1.11327 11.2259C1 11.6044 1 12.0696 1 13M9.22043 4C9.22043 5.65685 7.89548 7 6.26107 7C4.62667 7 3.30172 5.65685 3.30172 4C3.30172 2.34315 4.62667 1 6.26107 1C7.89548 1 9.22043 2.34315 9.22043 4ZM6.91871 13L8.95827 12.4093C9.05593 12.381 9.10477 12.3668 9.15031 12.3456C9.19076 12.3268 9.22921 12.3039 9.26508 12.2772C9.30549 12.2471 9.3414 12.2107 9.41322 12.1379L13.6595 7.83336C14.1135 7.37311 14.1135 6.62689 13.6595 6.16665C13.2055 5.70642 12.4694 5.70642 12.0154 6.16666L7.76914 10.4712C7.69731 10.544 7.6614 10.5804 7.63174 10.6214C7.6054 10.6578 7.58278 10.6967 7.56421 10.7377C7.5433 10.7839 7.52934 10.8334 7.50144 10.9324L6.91871 13Z" stroke="black" stroke-linecap="round" stroke-linejoin="round"/>
</svg>
